<?xml version="1.0" encoding="UTF-8"?>
<!DOCTYPE svg PUBLIC "-//W3C//DTD SVG 1.1//EN" "http://www.w3.org/Graphics/SVG/1.1/DTD/svg11.dtd">
<!-- Creator: CorelDRAW X7 -->
<svg xmlns="http://www.w3.org/2000/svg" xml:space="preserve" width="159.561mm" height="42.909mm" version="1.1" style="shape-rendering:geometricPrecision; text-rendering:geometricPrecision; image-rendering:optimizeQuality; fill-rule:evenodd; clip-rule:evenodd"
viewBox="0 0 15956 4291"
 xmlns:xlink="http://www.w3.org/1999/xlink">
 <defs>
  <style type="text/css">
   <![CDATA[
    .fil1 {fill:#27A7C7}
    .fil0 {fill:#2A7091}
    .fil2 {fill:url(#id0)}
   ]]>
  </style>
  <linearGradient id="id0" gradientUnits="userSpaceOnUse" x1="8840.34" y1="3924.77" x2="8840.34" y2="1259.46">
   <stop offset="0" style="stop-opacity:1; stop-color:#4C4C4D"/>
   <stop offset="1" style="stop-opacity:1; stop-color:#E7E8E8"/>
  </linearGradient>
 </defs>
 <g id="Layer_x0020_1">
  <metadata id="CorelCorpID_0Corel-Layer"/>
  <g id="_1525221109232">
   <path class="fil0" d="M13123 688c183,0 370,-141 409,-344 38,-191 -91,-344 -275,-344 -195,0 -378,154 -415,344 -37,190 85,344 281,344zm-4699 591l-33 -5 -19 -2 7 0c-64,-8 -128,-13 -190,-19 -718,-67 -1406,519 -1596,1196 -34,122 -52,254 -57,386 6,50 43,254 259,471l1 -41c94,-1037 1051,-1750 2051,-1549 -139,-335 -331,-418 -423,-437zm3721 779c77,-394 -232,-780 -886,-780 -880,0 -1329,644 -1478,1406 -183,934 87,1585 1157,1585 299,0 536,-55 672,-98l35 -178c-113,18 -233,37 -343,37 -880,0 -1105,-817 -961,-1554 120,-615 438,-959 822,-959 409,3 464,289 414,541l568 0zm2552 -541c342,0 605,184 693,234l72 -369c-99,-25 -352,-104 -658,-104 -714,0 -1060,331 -1153,804 -158,811 1280,799 1158,1426 -76,386 -371,522 -737,522 -379,0 -705,-240 -760,-270l-76 386c143,50 367,123 764,123 623,0 1139,-264 1260,-878 188,-965 -1267,-866 -1147,-1480 57,-296 321,-394 584,-394zm1043 -741c37,0 72,9 106,27 35,18 62,44 81,78 19,34 29,69 29,106 0,36 -9,71 -28,105 -19,33 -46,60 -80,78 -35,19 -70,28 -108,28 -37,0 -73,-9 -107,-28 -35,-18 -61,-45 -80,-78 -19,-34 -29,-69 -29,-105 0,-37 10,-72 29,-106 20,-34 47,-60 81,-78 35,-18 70,-27 106,-27zm0 35c-30,0 -60,7 -88,22 -29,15 -52,37 -68,66 -16,28 -24,57 -24,88 0,30 8,59 24,87 16,28 38,50 67,66 28,15 58,23 89,23 31,0 61,-8 90,-23 28,-16 51,-38 67,-66 15,-28 23,-57 23,-87 0,-31 -8,-60 -24,-88 -16,-29 -38,-51 -67,-66 -29,-15 -59,-22 -89,-22zm-95 292l0 -227 80 0c28,0 47,2 60,7 12,4 22,11 29,22 7,10 11,21 11,33 0,16 -6,31 -18,43 -13,13 -29,19 -49,21 8,3 15,7 20,12 9,9 21,24 34,45l29 44 -46 0 -21 -35c-16,-29 -29,-46 -39,-53 -7,-5 -17,-8 -30,-8l-22 0 0 96 -38 0zm38 -127l45 0c22,0 37,-4 45,-10 8,-6 12,-15 12,-25 0,-7 -2,-13 -6,-18 -4,-5 -9,-9 -16,-12 -7,-2 -19,-4 -37,-4l-43 0 0 69zm-10083 -680c168,12 471,24 397,405l-684 3501 471 0 783 -4011 -947 0 -20 105zm-1176 982c-726,0 -1152,346 -1378,952l509 -188c104,-231 318,-525 743,-525 367,0 513,314 446,658l-11 55 -1687 0c-52,138 -93,290 -125,454 -200,1026 216,1585 1114,1585 379,0 700,-80 780,-110l39 -203c-141,37 -301,74 -448,74 -850,0 -1108,-867 -992,-1462l25 -129 1785 0 18 -93c143,-731 -244,-1068 -818,-1068zm-1807 67l-1253 2255 -500 -2255 -844 0 -20 105c424,49 435,215 511,571l490 2248 281 0 1666 -2924 -331 0zm9698 37c167,18 451,37 379,406l-471 2414 470 0 571 -2924 -929 0 -20 104z"/>
   <path class="fil1" d="M6535 2822c0,0 17,353 472,656 547,366 1445,647 1865,343 0,0 -213,318 -771,444 -556,124 -1320,-208 -1491,-782 -61,-206 -81,-447 -75,-661z"/>
   <path class="fil2" d="M8633 3925c86,-15 153,-45 237,-101 760,-880 823,-2487 -591,-2565 836,281 910,1562 637,2248 -56,176 -158,330 -283,418z"/>
  </g>
 </g>
</svg>
