<?xml version="1.0" encoding="UTF-8"?>
<!DOCTYPE svg PUBLIC "-//W3C//DTD SVG 1.1//EN" "http://www.w3.org/Graphics/SVG/1.1/DTD/svg11.dtd">
<!-- Creator: CorelDRAW X7 -->
<svg xmlns="http://www.w3.org/2000/svg" xml:space="preserve" width="1.29465in" height="0.34815in" version="1.1" style="shape-rendering:geometricPrecision; text-rendering:geometricPrecision; image-rendering:optimizeQuality; fill-rule:evenodd; clip-rule:evenodd"
viewBox="0 0 1295 348"
 xmlns:xlink="http://www.w3.org/1999/xlink">
 <defs>
  <style type="text/css">
   <![CDATA[
    .fil0 {fill:#FEFEFE}
   ]]>
  </style>
 </defs>
 <g id="Layer_x0020_1">
  <metadata id="CorelCorpID_0Corel-Layer"/>
  <g id="_2043239191808">
   <path class="fil0" d="M1065 56c15,0 30,-12 33,-28 3,-16 -7,-28 -22,-28 -16,0 -31,12 -34,28 -3,15 7,28 23,28z"/>
   <path class="fil0" d="M999 112c14,2 37,3 31,33l-38 196 38 0 46 -237 -75 0 -2 8z"/>
   <path class="fil0" d="M212 109l-101 183 -41 -183 -68 0 -2 9c34,4 35,17 41,46l40 182 23 0 135 -237 -27 0z"/>
   <path class="fil0" d="M359 104c-59,0 -93,28 -112,77l41 -15c9,-19 26,-43 61,-43 29,0 41,26 36,53l-1 5 -137 0c-4,11 -7,23 -10,37 -16,83 18,128 90,128 31,0 57,-6 64,-9l3 -16c-12,3 -25,6 -37,6 -68,0 -89,-70 -80,-119l2 -10 145 0 1 -8c12,-59 -19,-86 -66,-86z"/>
   <path class="fil0" d="M454 24c14,1 39,2 33,33l-56 284 38 0 64 -325 -77 0 -2 8z"/>
   <path class="fil0" d="M1192 123c28,0 50,15 57,19l6 -30c-8,-2 -29,-8 -54,-8 -58,0 -86,27 -93,65 -13,66 104,65 94,116 -7,31 -31,42 -60,42 -31,0 -57,-19 -62,-22l-6 31c12,4 30,10 62,10 51,0 92,-21 102,-71 15,-78 -103,-70 -93,-120 5,-24 26,-32 47,-32zm85 -60c3,0 6,1 9,2 3,2 5,4 6,6 2,3 3,6 3,9 0,3 -1,6 -3,9 -1,2 -3,4 -6,6 -3,1 -6,2 -9,2 -3,0 -6,-1 -9,-2 -2,-2 -5,-4 -6,-6 -2,-3 -2,-6 -2,-9 0,-3 0,-6 2,-9 2,-2 4,-4 7,-6 2,-1 5,-2 8,-2zm0 3c-2,0 -5,0 -7,2 -2,1 -4,3 -6,5 -1,2 -2,5 -2,7 0,3 1,5 2,7 2,2 4,4 6,5 2,2 5,2 7,2 3,0 5,0 7,-2 3,-1 5,-3 6,-5 1,-2 2,-4 2,-7 0,-2 -1,-5 -2,-7 -2,-2 -3,-4 -6,-5 -2,-2 -4,-2 -7,-2zm-8 24l0 -19 7 0c2,0 4,0 5,1 1,0 2,1 2,1 1,1 1,2 1,3 0,1 0,3 -1,4 -1,1 -3,1 -4,1 0,1 1,1 1,1 1,1 2,2 3,4l2 4 -3 0 -2 -3c-1,-3 -2,-4 -3,-5 -1,0 -2,0 -3,0l-2 0 0 8 -3 0zm3 -11l4 0c2,0 3,0 4,-1 0,0 1,-1 1,-2 0,0 0,-1 -1,-1 0,-1 0,-1 -1,-1 -1,0 -2,0 -3,0l-4 0 0 5z"/>
   <path class="fil0" d="M985 167c7,-32 -18,-63 -71,-63 -72,0 -108,52 -120,114 -15,76 7,128 93,128 25,0 44,-4 55,-8l3 -14c-9,1 -19,3 -28,3 -71,0 -90,-66 -78,-126 10,-50 36,-78 67,-78 33,0 37,24 33,44l46 0z"/>
   <g>
    <path class="fil0" d="M684 104l-3 -1 -2 0 1 0c-5,0 -10,-1 -16,-1 -58,-6 -114,42 -129,97 -3,10 -4,20 -5,31 1,4 4,21 21,38l0 -3c8,-84 86,-142 167,-126 -11,-27 -27,-34 -34,-35z"/>
    <path class="fil0" d="M530 229c0,0 2,29 39,53 44,30 117,53 151,28 0,0 -17,26 -63,36 -45,10 -107,-17 -121,-63 -5,-17 -6,-37 -6,-54z"/>
    <path class="fil0" d="M700 318c7,-1 13,-3 20,-8 61,-71 66,-202 -48,-208 68,23 74,127 51,183 -4,14 -12,26 -23,33z"/>
   </g>
  </g>
 </g>
</svg>
